<svg width="667" height="416" viewBox="0 0 667 416" fill="none" xmlns="http://www.w3.org/2000/svg">
<g clip-path="url(#clip0_1_3)">
<rect width="667" height="416" fill="white"/>
<path d="M559.414 400.818V273.954L512.095 321.45L491.321 300.854L574.418 217.935L657.337 300.854L636.918 321.45L589.421 273.954V400.818H559.414Z" fill="black"/>
<path d="M334.037 400.818V219H405.77C419.56 219 431.308 221.634 441.015 226.901C450.721 232.11 458.12 239.36 463.21 248.652C468.359 257.885 470.933 268.539 470.933 280.612C470.933 292.686 468.329 303.34 463.121 312.573C457.912 321.806 450.366 328.997 440.482 334.146C430.657 339.295 418.761 341.87 404.793 341.87H359.072V311.063H398.579C405.977 311.063 412.073 309.791 416.867 307.246C421.72 304.642 425.331 301.061 427.698 296.504C430.125 291.887 431.338 286.59 431.338 280.612C431.338 274.575 430.125 269.308 427.698 264.81C425.331 260.253 421.72 256.731 416.867 254.245C412.014 251.7 405.859 250.428 398.401 250.428H372.478V400.818H334.037Z" fill="black"/>
<path d="M643.496 97.3396L608.872 99.4703C608.28 96.511 607.008 93.8477 605.055 91.4803C603.102 89.0537 600.527 87.1301 597.331 85.7097C594.194 84.23 590.436 83.4902 586.056 83.4902C580.197 83.4902 575.255 84.7331 571.23 87.2189C567.205 89.6455 565.193 92.9007 565.193 96.9845C565.193 100.24 566.495 102.992 569.099 105.241C571.704 107.49 576.172 109.295 582.505 110.656L607.185 115.628C620.443 118.351 630.327 122.73 636.837 128.767C643.348 134.804 646.603 142.735 646.603 152.56C646.603 161.497 643.969 169.339 638.702 176.086C633.493 182.833 626.332 188.101 617.217 191.889C608.162 195.617 597.716 197.482 585.879 197.482C567.827 197.482 553.445 193.723 542.732 186.207C532.079 178.631 525.835 168.333 524 155.312L561.198 153.359C562.323 158.863 565.045 163.065 569.366 165.965C573.686 168.806 579.22 170.227 585.967 170.227C592.596 170.227 597.923 168.954 601.947 166.409C606.031 163.805 608.103 160.461 608.162 156.377C608.103 152.945 606.653 150.133 603.812 147.943C600.971 145.694 596.591 143.978 590.673 142.794L567.057 138.089C553.741 135.426 543.827 130.809 537.317 124.24C530.865 117.67 527.64 109.295 527.64 99.1152C527.64 90.3557 530.007 82.8096 534.742 76.4767C539.536 70.1439 546.254 65.2611 554.895 61.8283C563.595 58.3955 573.775 56.6791 585.435 56.6791C602.658 56.6791 616.211 60.3191 626.095 67.5989C636.038 74.8787 641.839 84.7923 643.496 97.3396Z" fill="black"/>
<path d="M520.995 97.3396L486.371 99.4703C485.779 96.511 484.507 93.8477 482.553 91.4803C480.6 89.0537 478.026 87.1301 474.83 85.7097C471.693 84.23 467.935 83.4902 463.555 83.4902C457.696 83.4902 452.754 84.7331 448.729 87.2189C444.704 89.6455 442.692 92.9007 442.692 96.9845C442.692 100.24 443.994 102.992 446.598 105.241C449.202 107.49 453.671 109.295 460.004 110.656L484.684 115.628C497.942 118.351 507.826 122.73 514.336 128.767C520.847 134.804 524.102 142.735 524.102 152.56C524.102 161.497 521.468 169.339 516.2 176.086C510.992 182.833 503.831 188.101 494.716 191.889C485.661 195.617 475.214 197.482 463.377 197.482C445.326 197.482 430.944 193.723 420.231 186.207C409.578 178.631 403.334 168.333 401.499 155.312L438.697 153.359C439.821 158.863 442.544 163.065 446.865 165.965C451.185 168.806 456.719 170.227 463.466 170.227C470.095 170.227 475.422 168.954 479.446 166.409C483.53 163.805 485.602 160.461 485.661 156.377C485.602 152.945 484.151 150.133 481.311 147.943C478.47 145.694 474.09 143.978 468.171 142.794L444.556 138.089C431.24 135.426 421.326 130.809 414.816 124.24C408.364 117.67 405.139 109.295 405.139 99.1152C405.139 90.3557 407.506 82.8096 412.241 76.4767C417.035 70.1439 423.753 65.2611 432.394 61.8283C441.094 58.3955 451.274 56.6791 462.933 56.6791C480.156 56.6791 493.71 60.3191 503.594 67.5989C513.537 74.8787 519.337 84.7923 520.995 97.3396Z" fill="black"/>
<path d="M336.649 197.803C322.622 197.803 310.548 194.962 300.428 189.28C290.366 183.539 282.613 175.43 277.168 164.955C271.723 154.42 269 141.961 269 127.579C269 113.552 271.723 101.241 277.168 90.647C282.613 80.0528 290.277 71.7964 300.161 65.8778C310.104 59.9593 321.764 57 335.14 57C344.136 57 352.511 58.45 360.264 61.3501C368.077 64.191 372.881 67.229 378.682 72.97C384.541 78.711 385.926 80.2697 389.182 88.97C390.182 100.47 390.682 106.97 386.182 114.821C381.682 122.672 367.014 131.518 356.219 134.821C305.182 150.434 320.847 178.094 320.847 178.094L284.092 113.197C284.092 113.197 294.219 127.579 322.719 130.639C351.219 133.7 356.219 113.197 356.219 113.197C356.219 107.752 355.086 103.993 352.719 99.7912C350.351 95.589 346.921 93.0144 342.719 90.647C338.576 88.2204 335.723 87.6392 330.219 87.6392C324.478 87.6392 322.456 87.9837 318.018 90.647C313.638 93.2512 312.59 97.2003 310.104 101.639C307.619 106.019 306.435 114.253 306.376 119.639V136.723C306.376 143.47 307.619 149.3 310.104 154.212C312.649 159.125 316.23 162.913 320.847 165.576C325.463 168.239 330.938 169.571 337.271 169.571C341.473 169.571 345.32 168.979 348.812 167.795C352.304 166.612 355.293 164.836 357.778 162.469C360.264 160.101 362.158 157.201 363.46 153.768L398.439 156.077C396.663 164.481 393.023 171.82 387.519 178.094C382.074 184.308 375.031 189.161 366.39 192.653C357.808 196.086 347.894 197.803 336.649 197.803Z" fill="black"/>
<path d="M92.9854 16C111.274 16 127.017 19.6401 140.216 26.9199C153.414 34.1406 163.565 44.5276 170.667 58.0811C177.828 71.6345 181.409 87.8514 181.409 106.731C181.409 125.671 177.828 141.947 170.667 155.56C163.565 169.172 153.355 179.619 140.038 186.898C126.781 194.178 110.919 197.818 92.4531 197.818H28V16H92.9854ZM143.379 68.5293C127.758 52.9084 97.9985 57.3404 76.9102 78.4287C55.8219 99.517 51.3898 129.276 67.0107 144.897C82.6317 160.518 112.391 156.086 133.479 134.998C154.568 113.91 159 84.1503 143.379 68.5293Z" fill="black"/>
<path d="M186.281 198V78H218.547V98.9375H219.797C221.984 91.4896 225.656 85.8646 230.813 82.0625C235.969 78.2083 241.906 76.2812 248.625 76.2812C250.292 76.2812 252.089 76.3854 254.016 76.5937C255.943 76.8021 257.635 77.0885 259.094 77.4531V106.984C257.531 106.516 255.37 106.099 252.609 105.734C249.849 105.37 247.323 105.188 245.031 105.188C240.135 105.188 235.76 106.255 231.906 108.391C228.104 110.474 225.083 113.391 222.844 117.141C220.656 120.891 219.563 125.214 219.563 130.109V198H186.281Z" fill="black"/>
<g filter="url(#filter0_n_1_3)">
<circle cx="209.5" cy="59.5" r="15.5" fill="#30CBFF"/>
</g>
<path d="M323 400H28V219H60.085C59.3705 225.048 59 231.224 59 237.5C59 311.782 110.711 372 174.5 372C238.289 372 290 311.782 290 237.5C290 231.224 289.629 225.048 288.915 219H323V400Z" fill="black"/>
<circle cx="208" cy="308" r="17" fill="black"/>
<path d="M210 319.5C216.5 318 220.2 312.1 219 304.5" stroke="white" stroke-width="6" stroke-linecap="round"/>
<circle cx="229" cy="262" r="10" fill="black"/>
<path d="M230.176 268.765C234 267.882 236.176 264.412 235.471 259.941" stroke="white" stroke-width="2" stroke-linecap="round"/>
<circle cx="208" cy="240" r="4" fill="black"/>
<path d="M208.471 242.706C210 242.353 210.871 240.965 210.588 239.176" stroke="white" stroke-linecap="round"/>
</g>
<defs>
<filter id="filter0_n_1_3" x="194" y="44" width="31" height="31" filterUnits="userSpaceOnUse" color-interpolation-filters="sRGB">
<feFlood flood-opacity="0" result="BackgroundImageFix"/>
<feBlend mode="normal" in="SourceGraphic" in2="BackgroundImageFix" result="shape"/>
<feTurbulence type="fractalNoise" baseFrequency="3.3333332538604736 3.3333332538604736" stitchTiles="stitch" numOctaves="3" result="noise" seed="564" />
<feColorMatrix in="noise" type="luminanceToAlpha" result="alphaNoise" />
<feComponentTransfer in="alphaNoise" result="coloredNoise1">
<feFuncA type="discrete" tableValues="0 0 0 0 0 1 1 1 1 1 1 1 1 1 1 1 1 1 1 1 1 1 1 1 1 1 1 1 1 1 1 1 1 1 1 1 1 1 1 1 1 1 1 1 1 0 0 0 0 0 0 0 0 0 0 0 0 0 0 0 0 0 0 0 0 0 0 0 0 0 0 0 0 0 0 0 0 0 0 0 0 0 0 0 0 0 0 0 0 0 0 0 0 0 0 0 0 0 0 0 "/>
</feComponentTransfer>
<feComposite operator="in" in2="shape" in="coloredNoise1" result="noise1Clipped" />
<feFlood flood-color="rgba(0, 0, 0, 0.25)" result="color1Flood" />
<feComposite operator="in" in2="noise1Clipped" in="color1Flood" result="color1" />
<feMerge result="effect1_noise_1_3">
<feMergeNode in="shape" />
<feMergeNode in="color1" />
</feMerge>
</filter>
<clipPath id="clip0_1_3">
<rect width="667" height="416" fill="white"/>
</clipPath>
</defs>
</svg>
