<svg width="662" height="223" viewBox="0 0 662 223" fill="none" xmlns="http://www.w3.org/2000/svg">
<g clip-path="url(#clip0_8_2)">
<path d="M564.414 203.884V77.0192L517.095 124.516L496.321 103.919L579.418 21L662.337 103.919L641.918 124.516L594.421 77.0192V203.884H564.414Z" fill="black"/>
<path d="M339.037 203.884V22.0654H410.77C424.56 22.0654 436.308 24.6991 446.015 29.9667C455.721 35.175 463.12 42.4252 468.21 51.7174C473.359 60.9503 475.933 71.6037 475.933 83.6776C475.933 95.7515 473.329 106.405 468.121 115.638C462.912 124.871 455.366 132.062 445.482 137.211C435.657 142.36 423.761 144.935 409.793 144.935H364.072V114.129H403.579C410.977 114.129 417.073 112.856 421.867 110.311C426.72 107.707 430.331 104.126 432.698 99.5689C435.125 94.9524 436.338 89.6553 436.338 83.6776C436.338 77.6407 435.125 72.3731 432.698 67.875C430.331 63.3177 426.72 59.7962 421.867 57.3104C417.014 54.7654 410.859 53.4929 403.401 53.4929H377.478V203.884H339.037Z" fill="black"/>
<path d="M328 203.065H33V22.0652H65.085C64.3705 28.1129 64 34.2888 64 40.5652C64 114.847 115.711 175.065 179.5 175.065C243.289 175.065 295 114.847 295 40.5652C295 34.2888 294.629 28.1129 293.915 22.0652H328V203.065Z" fill="black"/>
<circle cx="213" cy="111.065" r="17" fill="black"/>
<path d="M215 122.565C221.5 121.065 225.2 115.165 224 107.565" stroke="white" stroke-width="6" stroke-linecap="round"/>
<circle cx="234" cy="65.0652" r="10" fill="black"/>
<path d="M235.176 71.8299C239 70.9475 241.176 67.4769 240.471 63.0063" stroke="white" stroke-width="2" stroke-linecap="round"/>
<circle cx="213" cy="43.0652" r="4" fill="black"/>
<path d="M213.471 45.771C215 45.4181 215.871 44.0299 215.588 42.2416" stroke="white" stroke-linecap="round"/>
</g>
<defs>
<clipPath id="clip0_8_2">
<rect width="662" height="223" fill="white"/>
</clipPath>
</defs>
</svg>
