<svg width="667" height="416" viewBox="0 0 667 416" fill="none" xmlns="http://www.w3.org/2000/svg">
<rect width="667" height="416" fill="white"/>
<path d="M563.414 410.818V283.954L516.095 331.45L495.321 310.854L578.418 227.935L661.337 310.854L640.918 331.45L593.421 283.954V410.818H563.414Z" fill="black"/>
<path d="M338.037 410.818V229H409.77C423.56 229 435.308 231.634 445.015 236.901C454.721 242.11 462.12 249.36 467.21 258.652C472.359 267.885 474.933 278.539 474.933 290.612C474.933 302.686 472.329 313.34 467.121 322.573C461.912 331.806 454.366 338.997 444.482 344.146C434.657 349.295 422.761 351.87 408.793 351.87H363.072V321.063H402.579C409.977 321.063 416.073 319.791 420.867 317.246C425.72 314.642 429.331 311.061 431.698 306.504C434.125 301.887 435.338 296.59 435.338 290.612C435.338 284.575 434.125 279.308 431.698 274.81C429.331 270.253 425.72 266.731 420.867 264.245C416.014 261.7 409.859 260.428 402.401 260.428H376.478V410.818H338.037Z" fill="black"/>
<path d="M660.375 84.3396L625.752 86.4703C625.16 83.511 623.887 80.8477 621.934 78.4803C619.981 76.0537 617.407 74.1301 614.211 72.7097C611.074 71.23 607.315 70.4902 602.936 70.4902C597.076 70.4902 592.134 71.7331 588.11 74.2189C584.085 76.6455 582.073 79.9007 582.073 83.9845C582.073 87.2397 583.375 89.9919 585.979 92.2409C588.583 94.49 593.052 96.2951 599.385 97.6564L624.065 102.628C637.323 105.351 647.207 109.73 653.717 115.767C660.227 121.804 663.483 129.735 663.483 139.56C663.483 148.497 660.849 156.339 655.581 163.086C650.373 169.833 643.212 175.101 634.097 178.889C625.042 182.617 614.595 184.482 602.758 184.482C584.707 184.482 570.324 180.723 559.612 173.207C548.958 165.631 542.714 155.333 540.88 142.312L578.078 140.359C579.202 145.863 581.925 150.065 586.245 152.965C590.566 155.806 596.1 157.227 602.847 157.227C609.476 157.227 614.802 155.954 618.827 153.409C622.911 150.805 624.982 147.461 625.042 143.377C624.982 139.945 623.532 137.133 620.691 134.943C617.85 132.694 613.471 130.978 607.552 129.794L583.937 125.089C570.62 122.426 560.707 117.809 554.196 111.24C547.745 104.67 544.52 96.2951 544.52 86.1152C544.52 77.3557 546.887 69.8096 551.622 63.4767C556.416 57.1439 563.133 52.2611 571.774 48.8283C580.475 45.3955 590.655 43.6791 602.314 43.6791C619.537 43.6791 633.091 47.3191 642.975 54.5989C652.918 61.8787 658.718 71.7923 660.375 84.3396Z" fill="black"/>
<path d="M524.995 84.3396L490.371 86.4703C489.779 83.511 488.507 80.8477 486.553 78.4803C484.6 76.0537 482.026 74.1301 478.83 72.7097C475.693 71.23 471.935 70.4902 467.555 70.4902C461.696 70.4902 456.754 71.7331 452.729 74.2189C448.704 76.6455 446.692 79.9007 446.692 83.9845C446.692 87.2397 447.994 89.9919 450.598 92.2409C453.202 94.49 457.671 96.2951 464.004 97.6564L488.684 102.628C501.942 105.351 511.826 109.73 518.336 115.767C524.847 121.804 528.102 129.735 528.102 139.56C528.102 148.497 525.468 156.339 520.2 163.086C514.992 169.833 507.831 175.101 498.716 178.889C489.661 182.617 479.214 184.482 467.377 184.482C449.326 184.482 434.944 180.723 424.231 173.207C413.578 165.631 407.334 155.333 405.499 142.312L442.697 140.359C443.821 145.863 446.544 150.065 450.865 152.965C455.185 155.806 460.719 157.227 467.466 157.227C474.095 157.227 479.422 155.954 483.446 153.409C487.53 150.805 489.602 147.461 489.661 143.377C489.602 139.945 488.151 137.133 485.311 134.943C482.47 132.694 478.09 130.978 472.171 129.794L448.556 125.089C435.24 122.426 425.326 117.809 418.816 111.24C412.364 104.67 409.139 96.2951 409.139 86.1152C409.139 77.3557 411.506 69.8096 416.241 63.4767C421.035 57.1439 427.753 52.2611 436.394 48.8283C445.094 45.3955 455.274 43.6791 466.933 43.6791C484.156 43.6791 497.71 47.3191 507.594 54.5989C517.537 61.8787 523.337 71.7923 524.995 84.3396Z" fill="black"/>
<path d="M328.468 184.482C314.441 184.482 302.367 181.641 292.246 175.959C282.184 170.218 274.431 162.11 268.986 151.634C263.541 141.099 260.818 128.64 260.818 114.258C260.818 100.231 263.541 87.9204 268.986 77.3262C274.431 66.7319 282.096 58.4755 291.98 52.557C301.923 46.6384 313.582 43.6791 326.958 43.6791C335.955 43.6791 344.329 45.1292 352.083 48.0293C359.895 50.8702 366.701 55.1611 372.502 60.9021C378.361 66.6432 382.918 73.8638 386.174 82.5641C389.429 91.2052 391.056 101.326 391.056 112.926C391.056 112.926 375.157 110.983 364.037 112.926C284.537 126.818 312.31 172.318 312.31 172.318L275.911 99.8759C275.911 99.8759 286.037 114.258 314.537 117.318C343.037 120.379 348.037 99.8759 348.037 99.8759C348.037 94.4308 346.904 90.6725 344.537 86.4703C342.17 82.2681 338.739 79.6936 334.537 77.3262C330.394 74.8995 327.541 74.3184 322.037 74.3184C316.296 74.3184 314.275 74.6628 309.836 77.3262C305.456 79.9303 304.409 83.8794 301.923 88.3184C299.437 92.6981 298.253 100.932 298.194 106.318V123.402C298.194 130.149 299.437 135.979 301.923 140.891C304.468 145.804 308.049 149.592 312.665 152.255C317.281 154.918 322.756 156.25 329.089 156.25C333.291 156.25 337.138 155.658 340.63 154.475C344.122 153.291 347.111 151.515 349.597 149.148C352.083 146.78 353.977 143.88 355.279 140.448L390.257 142.756C388.482 151.16 384.842 158.499 379.338 164.773C373.893 170.987 366.849 175.841 358.208 179.333C349.626 182.765 339.713 184.482 328.468 184.482Z" fill="black"/>
<path d="M64.9854 0C83.2737 0 99.0174 3.64009 112.216 10.9199C125.414 18.1406 135.565 28.5276 142.667 42.0811C149.828 55.6345 153.409 71.8514 153.409 90.7314C153.409 109.671 149.828 125.947 142.667 139.56C135.565 153.172 125.355 163.619 112.038 170.898C98.7806 178.178 82.919 181.818 64.4531 181.818H0V0H64.9854ZM115.379 52.5293C99.7579 36.9084 69.9985 41.3404 48.9102 62.4287C27.8218 83.517 23.3898 113.276 39.0107 128.897C54.6317 144.518 84.3912 140.086 105.479 118.998C126.568 97.9097 131 68.1503 115.379 52.5293Z" fill="black"/>
<path d="M247.02 43.502C248.913 43.502 250.956 43.6197 253.146 43.8564C255.336 44.0933 264.836 45.455 266.836 50.0713C266.822 50.0728 251.904 51.6787 234.336 69.2471C216.759 86.8237 213.994 99.1065 213.994 104.67V181.818H176.175V45.4551H195.022C188.565 55.8686 188.803 67.965 196.1 73.874C204.253 80.4769 218.133 76.8525 227.1 65.7793C232.606 58.9793 234.978 50.9517 234.102 44.2393L247.02 43.502Z" fill="black"/>
<path d="M65.9326 229C59.7654 242.847 56.3359 258.182 56.3359 274.318C56.3359 335.898 106.256 385.818 167.836 385.818C229.416 385.818 279.336 335.898 279.336 274.318C279.336 258.182 275.906 242.847 269.739 229H331.41V413.393H4.33594V229H65.9326Z" fill="black"/>
</svg>
